<?xml version="1.0" encoding="UTF-8"?>
<svg id="Layer_1" data-name="Layer 1" xmlns="http://www.w3.org/2000/svg" xmlns:xlink="http://www.w3.org/1999/xlink" viewBox="0 0 459.62 471.05">
  <defs>
    <linearGradient id="linear-gradient" x1="368.6" y1="65.07" x2="105.71" y2="520.41" gradientTransform="translate(0 473) scale(1 -1)" gradientUnits="userSpaceOnUse">
      <stop offset="0" stop-color="#090242"/>
      <stop offset=".5" stop-color="#2060d3"/>
    </linearGradient>
  </defs>
  <path id="Layer_1-2" data-name="Layer 1-2" d="M225.52,377.97c-.68,0-1.35-.09-2-.26-4-1.07-6.37-5.19-5.3-9.19h0l8.6-32.09c.93-4.04,4.96-6.55,8.99-5.62,4.04.93,6.55,4.96,5.62,8.99-.04.17-.08.34-.14.51l-8.6,32.1c-.86,3.26-3.8,5.53-7.17,5.56ZM208.81,377.96c-1.99,0-3.9-.79-5.31-2.19l-16-16c-2.93-2.93-2.93-7.68,0-10.61h0l16-16c2.98-2.88,7.73-2.8,10.61.18,2.81,2.91,2.81,7.51,0,10.42l-10.74,10.75,10.74,10.74c2.93,2.93,2.92,7.68,0,10.61-1.4,1.4-3.31,2.19-5.29,2.19v-.09h0ZM250.81,377.96c-4.14,0-7.5-3.36-7.49-7.51,0-1.99.79-3.89,2.19-5.29l10.74-10.74-10.74-10.75c-2.98-2.88-3.06-7.63-.18-10.61,2.88-2.98,7.63-3.06,10.61-.18l.18.18,16,16c2.93,2.93,2.93,7.68,0,10.61h0l-16,16c-1.4,1.45-3.31,2.27-5.31,2.29ZM229.81,420.32c-36.4,0-65.91-29.51-65.91-65.91s29.51-65.91,65.91-65.91,65.91,29.51,65.91,65.91h0c-.06,36.39-29.53,65.86-65.91,65.91ZM229.81,303.5c-28.12,0-50.91,22.79-50.91,50.91s22.79,50.91,50.91,50.91,50.91-22.79,50.91-50.91c-.05-28.1-22.81-50.86-50.91-50.91ZM233.93,471c-.44,0-.88-.04-1.32-.12l-45.62-8.12c-4.07-.73-6.78-4.62-6.07-8.69l2.94-16.52c-3.54-1.96-6.96-4.14-10.22-6.54l-13.76,9.6c-3.4,2.37-8.07,1.54-10.44-1.86l-26.52-38c-2.36-3.41-1.51-8.08,1.89-10.44l13.76-9.6c-1.12-3.89-1.99-7.85-2.61-11.85l-16.52-2.94c-4.08-.73-6.79-4.62-6.07-8.7l8.12-45.62c.72-4.07,4.6-6.79,8.68-6.07h.02l16.48,2.97c1.96-3.54,4.15-6.96,6.55-10.22l-9.6-13.78c-2.38-3.39-1.55-8.07,1.84-10.45h0l38-26.51c3.39-2.37,8.06-1.55,10.43,1.83,0,.01,0,.02.02.03l9.6,13.76c3.89-1.14,7.85-2.03,11.85-2.66l2.94-16.52c.73-4.08,4.62-6.79,8.7-6.07l45.62,8.12c4.08.73,6.79,4.62,6.07,8.7l-2.89,16.56c3.54,1.96,6.96,4.14,10.22,6.54l13.76-9.61c3.4-2.37,8.07-1.54,10.44,1.86l26.52,38c2.34,3.41,1.47,8.08-1.94,10.42l-13.76,9.61c1.12,3.89,1.99,7.85,2.61,11.85l16.52,2.94c4.08.73,6.79,4.62,6.07,8.7l-8.12,45.61c-.73,4.08-4.62,6.8-8.7,6.07h0l-16.51-2.94c-1.96,3.55-4.15,6.96-6.55,10.23l9.6,13.76c2.37,3.39,1.54,8.07-1.85,10.44l-38,26.52c-3.38,2.36-8.02,1.56-10.42-1.79l-9.6-13.77c-3.89,1.13-7.85,2-11.85,2.61l-2.94,16.52c-.63,3.58-3.74,6.19-7.38,6.19v-.05h0ZM197.01,449.31l30.85,5.49,2.59-14.59c.6-3.32,3.34-5.84,6.7-6.15,6.62-.6,13.15-2.04,19.41-4.28,3.18-1.13,6.73,0,8.67,2.77l8.48,12.16,25.7-17.93-8.48-12.15c-1.93-2.77-1.77-6.49.39-9.09,4.26-5.11,7.85-10.74,10.71-16.75,1.45-3.05,4.76-4.76,8.09-4.16l14.58,2.59,5.5-30.85-14.59-2.6c-3.32-.59-5.84-3.33-6.15-6.69-.61-6.63-2.05-13.15-4.28-19.42-1.14-3.18,0-6.73,2.77-8.66l12.16-8.5-17.94-25.7-12.15,8.49c-2.77,1.94-6.5,1.78-9.09-.39-5.11-4.26-10.74-7.86-16.75-10.71-3.05-1.45-4.75-4.76-4.16-8.09l2.59-14.6-30.8-5.47-2.59,14.59c-.6,3.32-3.34,5.84-6.7,6.15-6.62.61-13.14,2.05-19.41,4.28-3.18,1.14-6.74,0-8.67-2.77l-8.48-12.16-25.7,17.93,8.48,12.16c1.93,2.77,1.77,6.49-.39,9.09-4.26,5.11-7.86,10.73-10.71,16.74-1.45,3.05-4.76,4.76-8.09,4.17l-14.58-2.6-5.55,30.89,14.59,2.6c3.33.59,5.85,3.33,6.16,6.7.61,6.62,2.04,13.15,4.28,19.41,1.13,3.19,0,6.73-2.78,8.67l-12.16,8.48,17.94,25.7,12.15-8.56c2.77-1.94,6.5-1.78,9.09.39,5.11,4.25,10.74,7.85,16.75,10.71,3.05,1.45,4.75,4.76,4.16,8.09l-2.59,14.62ZM427.4,335.08h-114.33c-4.14,0-7.5-3.36-7.5-7.5s3.36-7.5,7.5-7.5h114.33c9.51-.01,17.21-7.71,17.22-17.22V32.22c-.01-9.51-7.71-17.21-17.22-17.22H32.22c-9.51,0-17.21,7.71-17.22,17.22v270.64c0,9.51,7.71,17.21,17.22,17.22h94c4.14,0,7.5,3.36,7.5,7.5s-3.36,7.5-7.5,7.5H32.22C14.43,335.06.02,320.65,0,302.86V32.22C.02,14.43,14.43.02,32.22,0h395.18c17.79.02,32.2,14.43,32.22,32.22v270.64c-.02,17.79-14.43,32.2-32.22,32.22ZM452.12,72.03H7.5c-4.14,0-7.5-3.36-7.5-7.5s3.36-7.5,7.5-7.5h444.62c4.14,0,7.5,3.36,7.5,7.5s-3.36,7.5-7.5,7.5ZM313.55,43.5h-50.05c-4.14,0-7.5-3.36-7.5-7.5s3.36-7.5,7.5-7.5h50.05c4.14,0,7.5,3.36,7.5,7.5s-3.36,7.5-7.5,7.5ZM400.26,43.5h-50.05c-4.14,0-7.5-3.36-7.5-7.5s3.36-7.5,7.5-7.5h50.05c4.14,0,7.5,3.36,7.5,7.5s-3.36,7.5-7.5,7.5h0ZM374.3,307.74c-14.74,0-30.62-13.62-48.42-41.47-7.67-12.16-14.6-24.78-20.75-37.77h-150.64c-6.15,13.01-13.08,25.63-20.75,37.81-19.27,30.15-36.29,43.63-52.06,41.19-20-3.1-32.2-30.32-38.34-85.68-4.75-42.85,14-78.85,54.24-104.11,33.71-21.21,81.91-33.32,132.23-33.32s98.52,12.11,132.23,33.28c40.24,25.26,59,61.26,54.24,104.11-6.14,55.36-18.32,82.58-38.34,85.68-1.2.18-2.42.28-3.64.28ZM229.81,99.23c-45.58,0-91.16,10.38-124.25,31.15-24.43,15.33-52.46,43.34-47.31,89.75,7,62.93,20.31,71.67,25.72,72.5,16.41,2.51,44.84-43.08,58.87-74.71,1.2-2.71,3.89-4.46,6.86-4.46h160.22c2.97,0,5.65,1.74,6.86,4.45,6.37,13.94,13.67,27.44,21.83,40.41,14.6,22.82,28.44,35.63,37,34.31,5.41-.83,18.74-9.58,25.72-72.5,5.15-46.41-22.88-74.42-47.31-89.75-33.05-20.77-78.63-31.15-124.21-31.15ZM162.69,195.17h-22.27c-4.14,0-7.5-3.36-7.5-7.5v-3.63h-3.64c-4.14-.02-7.49-3.39-7.47-7.53h0v-22.24c0-4.14,3.36-7.5,7.5-7.5h3.64v-3.64c0-4.14,3.36-7.5,7.5-7.5h22.27c4.14,0,7.5,3.36,7.5,7.5h0v3.64h3.59c4.14,0,7.5,3.36,7.5,7.5v22.23c0,4.14-3.36,7.5-7.5,7.5h-3.63v3.63c.02,4.14-3.32,7.52-7.46,7.54h-.03ZM147.92,180.17h7.27v-3.67c0-4.14,3.34-7.49,7.48-7.5h3.65v-7.27h-3.63c-4.14,0-7.5-3.36-7.5-7.5v-3.64h-7.27v3.64c0,4.14-3.36,7.5-7.5,7.5h-3.61v7.27h3.64c4.14,0,7.5,3.36,7.5,7.5l-.03,3.67ZM310.29,150.97h-3.76c-4.14,0-7.5-3.36-7.5-7.5s3.36-7.5,7.5-7.5h3.76c4.14,0,7.5,3.36,7.5,7.5s-3.36,7.5-7.5,7.5ZM310.29,194.83h-3.76c-4.14,0-7.5-3.36-7.5-7.5s3.36-7.5,7.5-7.5h3.76c4.14,0,7.5,3.36,7.5,7.5s-3.36,7.5-7.5,7.5ZM330.34,174.78c-4.14,0-7.5-3.36-7.5-7.5v-3.78c0-4.14,3.36-7.5,7.5-7.5s7.5,3.36,7.5,7.5v3.76c.01,4.14-3.34,7.51-7.48,7.52h-.02ZM286.48,174.78c-4.14,0-7.5-3.36-7.5-7.5v-3.78c0-4.14,3.36-7.5,7.5-7.5s7.5,3.36,7.5,7.5v3.76c.01,4.14-3.34,7.51-7.48,7.52h-.02ZM247.9,142.64h-36.18c-4.14,0-7.5-3.36-7.5-7.5s3.36-7.5,7.5-7.5h36.18c4.14,0,7.5,3.36,7.5,7.5s-3.36,7.5-7.5,7.5ZM247.9,171.33h-36.18c-4.14,0-7.5-3.36-7.5-7.5s3.36-7.5,7.5-7.5h36.18c4.14,0,7.5,3.36,7.5,7.5s-3.36,7.5-7.5,7.5Z" style="fill: url(#linear-gradient); stroke-width: 0px;"/>
</svg>