<?xml version="1.0" encoding="UTF-8"?>
<svg id="Layer_1" data-name="Layer 1" xmlns="http://www.w3.org/2000/svg" viewBox="0 0 1922.5 260">
  <g>
    <path d="M1520.42,239.44h-26.91l-8.4-77.92v-.02c-2.95-27.41-.82-44.57-.82-44.57,0,0-5.93,20.08-17.28,43.39l-38.18,78.39-38.18-78.39c-11.36-23.31-17.29-43.39-17.29-43.39,0,0,2.13,17.17-.81,44.56l-8.4,77.94h-26.91l17.51-162.38h24.64l49.44,101.51,49.44-101.51h24.64l17.53,162.39Z" style="fill: #fff; stroke-width: 0px;"/>
    <path d="M1534.9,92.61c0-9.42,7.63-17.05,17.05-17.05s17.05,7.63,17.05,17.05-7.63,17.05-17.05,17.05-17.05-7.63-17.05-17.05ZM1538.56,237.94v-115.97h26.78v115.97h-26.78Z" style="fill: #fff; stroke-width: 0px;"/>
    <path d="M1766.5,237.95h-26.82l.06-61.86v-7.69c-.05-2.13-.18-4.19-.54-6.16-.36-1.96-.84-3.83-1.51-5.54-.68-1.77-1.5-3.42-2.44-4.82-1.88-2.83-4.04-4.88-6.44-6.29-1.22-.76-2.52-1.38-3.95-1.81-1.41-.5-3.02-.85-4.82-1.02-3.67-.34-6.84-.37-10.29.63-3.39.86-6.92,2.84-10.02,6.01-3.11,3.16-5.57,7.33-7.04,11.86-.77,2.28-1.27,4.68-1.58,7.11-.21,1.95-.37,3.93-.52,5.91v1.81l.06,61.86h-26.78l.06-61.86v-7.69c-.05-2.13-.18-4.19-.54-6.16-.36-1.96-.84-3.83-1.51-5.54-.68-1.77-1.5-3.42-2.44-4.82-1.88-2.83-4.04-4.88-6.44-6.29-1.22-.76-2.52-1.38-3.95-1.81-1.41-.5-3.02-.85-4.82-1.02-3.67-.34-6.84-.37-10.29.63-3.39.86-6.92,2.84-10.02,6.01-3.11,3.16-5.57,7.33-7.04,11.86-.77,2.28-1.27,4.68-1.58,7.11-.18,1.72-.33,3.46-.47,5.2v64.38h-26.78v-115.97h26.78v10.92c1.99-2.55,4.39-4.96,7.27-7.01,3.12-2.2,6.72-3.99,10.52-5.26,3.81-1.23,7.77-1.87,11.61-2.09,3.86-.17,7.94.09,12.01.91,4.06.89,8.02,2.34,11.62,4.29,7.29,3.99,12.82,10.01,16.22,16.27.46.83.88,1.67,1.28,2.5,0-.02,0-.03,0-.04,2.16-5.95,6.26-12.09,12.6-16.6,3.12-2.2,6.71-3.99,10.52-5.26,3.81-1.23,7.77-1.87,11.61-2.09,3.86-.17,7.94.09,12,.91,4.06.89,8.02,2.34,11.62,4.29,7.29,3.99,12.82,10.01,16.22,16.27,1.74,3.14,3.01,6.31,3.98,9.47.97,3.23,1.64,6.42,2.02,9.57.38,3.15.59,6.23.56,9.26v7.78s.05,61.86.05,61.86h0Z" style="fill: #fff; stroke-width: 0px;"/>
    <path d="M1782.44,92.61c0-9.42,7.63-17.05,17.05-17.05s17.05,7.63,17.05,17.05-7.63,17.05-17.05,17.05-17.05-7.63-17.05-17.05ZM1786.1,237.94v-115.97h26.78v115.97h-26.78Z" style="fill: #fff; stroke-width: 0px;"/>
    <path d="M1915.1,121.09l-6.16,25.89c-.77-.52-1.56-1.01-2.4-1.44-2.91-1.5-6.15-2.48-10.16-2.81-4.03-.32-7.68-.25-11.38.74-3.71.93-7.34,2.7-10.7,5.63-3.33,2.86-6.21,6.9-8.16,11.27-1.96,4.46-3.03,9.26-3.42,14.5-.13,1.44-.24,2.87-.37,4.31v58.76h-26.78v-115.97h26.78v13.99c2.99-4.24,7.05-8.15,11.98-11.07,6.54-3.93,14.54-6.08,22.05-6.38,3.79-.16,7.74.06,11.7.74,2.38.42,4.74,1.06,7.03,1.84Z" style="fill: #fff; stroke-width: 0px;"/>
  </g>
  <g>
    <g>
      <path d="M187.94,191.51h-110.53c-4.94,0-9.68-1.96-13.17-5.45l-53.67-53.67h118.24l59.12,59.12Z" style="fill: #2060d3; stroke-width: 0px;"/>
      <path d="M365.31,132.39l-105.08,105.08c-7.27,7.27-19.06,7.27-26.33,0l-45.96-45.96,59.12-59.12h118.24Z" style="fill: #2060d3; stroke-width: 0px;"/>
      <path d="M247.08,69.07v8.39c-14.04,0-28.12,5.37-38.86,16.11-10.74,10.71-16.08,24.75-16.08,38.83h-8.39c0-14.04-5.37-28.12-16.11-38.86-10.71-10.74-24.75-16.08-38.83-16.08v-8.39c14.04,0,28.12-5.37,38.86-16.11,10.74-10.71,16.08-24.75,16.08-38.83h8.39c0,14.04,5.37,28.12,16.11,38.86,10.71,10.74,24.75,16.08,38.83,16.08Z" style="fill: #5686f3; stroke-width: 0px;"/>
    </g>
    <g>
      <path d="M488.95,141.87c-2.38-.76-4.54-1.46-6.36-2.13-1.24-.48-2.67-.95-4.19-1.49-18.53-6.39-29.11-12.11-28.25-22.47,1.46-18.43,27.55-18.65,28.66-18.65,17.13,0,28.12,6.01,33.56,18.4l18.88-18.88c-10.9-15.28-29.11-23.55-52.43-23.55-35.56,0-53.42,21.23-55,40.93-2.45,30.25,30.95,41.75,45.22,46.68,1.37.48,2.61.89,3.69,1.3,2.13.76,4.61,1.59,7.37,2.48,19.51,6.32,35.69,12.84,36.13,28.63.19,5.56-1.91,10.3-6.16,14.08-6.51,5.81-17.51,8.99-29.52,8.45-15.41-.67-33.87-8.2-39.47-27.3l-19.64,19.64c11.12,18.53,32.44,30.57,57.83,31.65,1.3.06,2.61.1,3.91.1,17.92,0,34.29-5.5,45.38-15.35,9.6-8.55,14.46-19.57,14.08-31.94-.99-33.52-35.27-44.65-53.67-50.59Z" style="fill: #fff; stroke-width: 0px;"/>
      <path d="M642.84,178.62c-.12,1.41-.24,2.82-.36,4.23-.38,5.17-1.44,9.9-3.37,14.31-1.92,4.32-4.77,8.29-8.05,11.12-3.32,2.89-6.9,4.63-10.56,5.55-3.66.98-7.26,1.04-11.23.73-3.95-.33-7.15-1.29-10.02-2.78-2.85-1.46-5.31-3.45-7.46-6.17-2.13-2.63-3.93-6.24-5-9.97-.52-1.91-.94-3.92-1.14-6-.11-1.04-.17-2.11-.21-3.19l-.05-3.61.07-62.22h-26.42l.07,62.22v4.17c.03,1.51.1,3.05.23,4.59.27,3.07.66,6.22,1.39,9.37,1.46,6.37,3.88,12.59,8.07,18.61,2.12,2.96,4.63,5.77,7.58,8.27,2.99,2.47,6.35,4.66,9.97,6.31,3.61,1.63,7.49,2.89,11.39,3.57,3.92.67,7.81.88,11.56.73,7.41-.3,15.3-2.41,21.76-6.29,4.86-2.88,8.87-6.75,11.81-10.93v13.81h26.42v-114.42h-26.44v57.99Z" style="fill: #fff; stroke-width: 0px;"/>
      <path d="M788,122.48c-7.95-3.06-16.63-4.52-25.19-4.38-8.55.23-17.06,2.09-24.64,5.53-7,3.18-13.1,7.62-18.15,12.76v-61.57h-26.42v160.22h26.42v-15.73c5.05,5.13,11.14,9.59,18.13,12.75,7.57,3.44,16.1,5.3,24.65,5.53,8.55.15,17.25-1.31,25.2-4.38,7.96-3.06,15.11-7.68,21.03-13.28,11.8-11.28,18.37-26.75,18.25-42.11.11-15.35-6.47-30.81-18.27-42.09-5.92-5.6-13.07-10.21-21.02-13.26ZM789.54,202.82c-7.06,6.6-16.7,10.33-26.73,10.72-5.04.22-10.09-.44-15.01-1.88-4.93-1.41-9.71-3.73-13.88-6.94-8.45-6.29-13.92-16.42-13.86-26.88-.07-10.47,5.38-20.6,13.84-26.91,4.16-3.21,8.94-5.55,13.88-6.96,4.92-1.44,9.99-2.1,15.03-1.89,10.04.38,19.7,4.14,26.75,10.74,7.18,6.48,11.33,15.63,11.38,25.01-.06,9.37-4.21,18.52-11.39,24.98Z" style="fill: #fff; stroke-width: 0px;"/>
      <path d="M1036.85,136.41c-5.05-5.14-11.14-9.59-18.14-12.76-7.57-3.44-16.09-5.3-24.64-5.53-8.55-.15-17.24,1.31-25.18,4.38-7.95,3.06-15.1,7.66-21.02,13.26-11.8,11.26-18.37,26.73-18.27,42.09-.11,15.35,6.45,30.82,18.25,42.11,5.92,5.6,13.07,10.22,21.03,13.28,7.95,3.06,16.64,4.53,25.2,4.38,8.55-.23,17.08-2.1,24.65-5.54,6.99-3.18,13.09-7.62,18.13-12.75v15.73h26.42v-114.43h-26.42v15.78ZM1022.96,204.72c-4.16,3.21-8.94,5.54-13.87,6.94-4.92,1.44-9.98,2.09-15.02,1.88-10.03-.37-19.67-4.12-26.72-10.72-7.18-6.47-11.35-15.61-11.4-24.98.06-9.38,4.2-18.53,11.39-25.01,7.06-6.61,16.71-10.36,26.74-10.74,5.05-.21,10.1.44,15.03,1.89,4.93,1.42,9.72,3.75,13.87,6.96,8.46,6.31,13.91,16.44,13.84,26.91.07,10.46-5.4,20.58-13.86,26.88Z" style="fill: #fff; stroke-width: 0px;"/>
      <rect x="1087.3" y="74.89" width="26.42" height="160.22" style="fill: #fff; stroke-width: 0px;"/>
      <path d="M1260.96,177.84c0-32.95-28.95-59.74-64.54-59.74s-64.51,26.79-64.51,59.74,30.92,59.74,68.89,59.74c19.67,0,37.94-7.21,50.75-19.38l-17.83-17.79c-7.91,8.2-19.89,13.16-32.92,13.16-19.35,0-35.65-10.93-40.77-25.83h99.97c.6-3.24.95-6.55.95-9.88ZM1159.88,167.96c4.58-14.9,19.23-25.83,36.54-25.83s32,10.93,36.57,25.83h-73.12Z" style="fill: #fff; stroke-width: 0px;"/>
      <path d="M886.35,74.82l-26.41,26.41v20.18h-25.8v24.05h25.8v46.84c0,14.46,1.94,29.11,15.92,38.16,7.69,4.96,17.48,6.58,28.06,6.58,4.86,0,9.88-.35,14.93-.86v-24.18c-9.63,1.11-22.82,2-27.68-1.11-2.45-1.59-4.83-4.32-4.83-18.59v-46.84h32.51v-24.02h-32.51v-46.61Z" style="fill: #fff; stroke-width: 0px;"/>
    </g>
  </g>
</svg>